<mxfile host="65bd71144e" scale="1" border="0" disableSvgWarning="true">
    <diagram id="C3bkfMkm8NX2UVXmflh9" name="Page-1">
        <mxGraphModel dx="734" dy="338" grid="1" gridSize="10" guides="1" tooltips="1" connect="1" arrows="1" fold="1" page="1" pageScale="1" pageWidth="850" pageHeight="1100" math="0" shadow="0">
            <root>
                <mxCell id="0"/>
                <mxCell id="1" parent="0"/>
                <mxCell id="3" value="Spam&lt;br&gt;Classifier" style="text;html=1;strokeColor=none;fillColor=none;align=left;verticalAlign=middle;whiteSpace=wrap;rounded=0;fontStyle=1;fontSize=42;" parent="1" vertex="1">
                    <mxGeometry x="160" y="300" width="320" height="20" as="geometry"/>
                </mxCell>
                <mxCell id="4" value="" style="pointerEvents=1;shadow=0;dashed=0;html=1;strokeColor=#005700;labelPosition=center;verticalLabelPosition=bottom;verticalAlign=top;outlineConnect=0;align=center;shape=mxgraph.office.concepts.anti_spam;fontColor=#ffffff;sketch=0;fillColor=#000000;" vertex="1" parent="1">
                    <mxGeometry x="50" y="270" width="100" height="80" as="geometry"/>
                </mxCell>
            </root>
        </mxGraphModel>
    </diagram>
</mxfile>